<?xml version="1.0" encoding="utf-8"?>
<!-- Generator: Adobe Illustrator 22.0.1, SVG Export Plug-In . SVG Version: 6.00 Build 0)  -->
<svg version="1.1" id="Layer_1" xmlns="http://www.w3.org/2000/svg" xmlns:xlink="http://www.w3.org/1999/xlink" x="0px" y="0px"
   viewBox="0 0 40 40.5" style="enable-background:new 0 0 40 40.5;" xml:space="preserve">
<style type="text/css">
  .st0{fill:#FFFFFF;}
</style>
<g>
  <path class="st0" d="M20.9,36.2c0-0.1-0.1-0.3-0.1-0.3c0,0,0,0,0-0.1c-0.5-1-1.5-1.7-2.6-1.7h-2.9c-1.2,0-2.2,0.7-2.6,1.7
    c-3.9-0.4-6.9-3.5-7.4-7.3c1.2-0.4,2.2-1.3,2.6-2.5c2.4,4.2,6.9,7,12.1,7c5.2,0,9.7-2.8,12.1-7c0.6,1.6,2.1,2.7,3.9,2.7
    c2.2,0,4-1.9,4-4.2l0-4.7c0-1.8-1.2-3.4-2.9-3.9C36.6,7.1,29.1,0,20,0S3.4,7.1,2.9,16.1C1.2,16.6,0,18.1,0,19.9v4.8
    c0,1.8,1.2,3.4,2.9,3.9c0.3,3.6,2.4,6.6,5.4,8.3c0,0,0.3,0.2,0.3,0.2c1.1,0.6,4,1.2,4,1.2l0,0c0.5,1,1.5,1.7,2.6,1.7h2.9
    c1.2,0,2.2-0.7,2.6-1.7c0,0,0.1-0.3,0.1-0.4 M20,30.7c-6.4,0-11.6-5.2-11.6-11.5c0-6.4,5.2-11.5,11.6-11.5s11.6,5.2,11.6,11.5
    C31.6,25.5,26.4,30.7,20,30.7L20,30.7z M37.6,19.9v4.8c0,0.9-0.8,1.7-1.7,1.7c-0.9,0-1.7-0.8-1.7-1.7v-4.8c0-0.9,0.8-1.7,1.7-1.7
    C36.9,18.3,37.6,19,37.6,19.9L37.6,19.9z M20,2.4c7.8,0,14.2,6.1,14.7,13.7c-0.4,0.1-0.7,0.3-1,0.5C32.4,10.2,26.8,5.3,20,5.3
    c-6.8,0-12.4,4.9-13.7,11.3c-0.3-0.2-0.7-0.4-1-0.5C5.8,8.4,12.2,2.4,20,2.4L20,2.4z M2.4,24.7v-4.8c0-0.9,0.8-1.7,1.7-1.7
    c0.9,0,1.7,0.8,1.7,1.7v4.8c0,0.9-0.8,1.7-1.7,1.7C3.1,26.4,2.4,25.6,2.4,24.7L2.4,24.7z M2.4,24.7"/>
</g>
<path d="M-30.5,88"/>
<path d="M-17.9,85.6"/>
</svg>
