<svg width="23" height="20" viewBox="0 0 23 20" fill="none" xmlns="http://www.w3.org/2000/svg">
<g clip-path="url(#clip0_1061_24745)">
<path d="M0.564485 5.64648H4.60695V7.22596H1.32432V18.3654H17.1932V17.0309H18.7671V20H0V5.64648H0.564485Z" fill="#535353"/>
<path d="M17.7023 2.8372L21.4973 6.95097L17.6968 11.2371V10.1672L17.6356 9.99058C17.5754 9.82416 17.4811 9.6723 17.3587 9.54485C17.2363 9.41739 17.0886 9.31719 16.9251 9.25074C16.6575 9.13279 16.3231 9.07555 15.9039 9.07555C14.8952 9.07555 13.2469 9.41127 11.0057 10.0736C9.77869 10.4359 8.25 11.3411 6.4613 12.765C6.49745 12.5988 6.53684 12.4292 6.57948 12.2562C7.14953 9.95289 8.03379 8.22544 9.13635 7.26156C9.90105 6.59222 10.891 6.09946 12.0756 5.79585C13.0287 5.56262 14.0067 5.4473 14.9877 5.45245C15.4666 5.45026 15.9452 5.47917 16.4204 5.539L17.6919 5.72884L17.6968 4.43832L17.7023 2.8393V2.8372ZM16.6012 0L16.5845 4.43204C16.0542 4.36468 15.5201 4.33297 14.9856 4.33711C13.2414 4.33711 10.4273 4.6505 8.40363 6.41982C5.26629 9.1621 4.92773 15.5784 4.92773 15.5784C4.92773 15.5784 8.68518 11.9225 11.3192 11.145C13.9164 10.3772 15.2352 10.1923 15.9074 10.1923C16.5331 10.1923 16.588 10.3549 16.588 10.3549V14.1707L23.0003 6.93492L16.6012 0Z" fill="#535353"/>
</g>
<defs>
<clipPath id="clip0_1061_24745">
<rect width="23" height="20" fill="white"/>
</clipPath>
</defs>
</svg>
