<?xml version="1.0" encoding="utf-8"?>
<!-- Generator: Adobe Illustrator 22.1.0, SVG Export Plug-In . SVG Version: 6.00 Build 0)  -->
<svg version="1.1" id="Layer_1" xmlns="http://www.w3.org/2000/svg" xmlns:xlink="http://www.w3.org/1999/xlink" x="0px" y="0px"
   viewBox="0 0 858.7 69.3" style="enable-background:new 0 0 858.7 69.3;" xml:space="preserve">
<style type="text/css">
  .st0{fill:#FFFFFF;}
  .st1{fill:#FFFFFF;stroke:#FFFFFF;stroke-width:0.5;}
</style>
<path class="st0" d="M3.1,65.4l5.2-7.3v-48L3.1,2.9h20.2l-5.2,7.3v48l5.2,7.3H3.1z"/>
<path class="st0" d="M59.8,65.4c-5.6-9.6-22.3-34.8-22.3-34.8v34.9h-7.4V19.8l-5.2-7.2h11.2L58,46V12.6h7.5v52.7H59.8z"/>
<path class="st0" d="M94.2,65.4h-6.8L71.8,17.3l-3.3-4.6h11.4l11.8,37.3l10.4-32.6l-3.3-4.6h12.5L94.2,65.4z"/>
<path class="st0" d="M141.9,65.4H116V12.6h27.3l-2.8,7H125V35h15.1l-2.9,7.3H125v15.5H145L141.9,65.4z"/>
<path class="st0" d="M160.9,66.6c-4.8,0-9.9-1-13.6-2.9l2.4-8c5.4,5.2,20.4,5.2,20.4-3.2c0-11.2-22.6-10.1-22.6-27
  c0-8.5,6.6-13.9,16.8-13.9c4,0,8.2,0.6,11.7,2.5l-2.8,7.9c-3.8-4.5-16.9-4.9-16.9,2.6c0,9.8,22.5,10.8,22.5,25.5
  C178.8,59.4,172.6,66.6,160.9,66.6z"/>
<path class="st0" d="M201.2,19.6v45.8h-9V19.6h-13.8l2.1-7h31.9l2.4,7H201.2z"/>
<path class="st0" d="M233.6,66.5c-14.8,0-19.6-16.1-19.6-28.1c0-12.1,6.1-26.8,20.2-26.8c14.8,0,19.6,16.1,19.6,28.1
  C253.8,51.8,247.6,66.5,233.6,66.5z M233.6,18.9c-9.1,0-10.3,12.5-10.3,19.1c0,6.6,1.3,21.1,10.9,21.1c9.1,0,10.3-12.5,10.3-19.1
  C244.5,33.4,243.1,18.9,233.6,18.9z"/>
<path class="st0" d="M286.8,65.4l-16-23.6v23.6h-9V18.1l-3.9-5.5h19.6c8.8,0,15.6,6,15.6,14.8c0,7.8-3.6,13.9-11.5,15.3l16.6,22.6
  H286.8z M276,19.5h-5.2v17.2h5.5c4.3,0,8.1-3.1,8.1-8.8C284.3,23.1,281.3,19.5,276,19.5z"/>
<path class="st0" d="M297.7,29.1c1.5-2.7,2.2-5.9,2.2-8.6c-3.5-0.3-5.2-2.2-5.2-4.9c0-3.2,2.3-4.9,4.7-4.9c2.8,0,5.7,2.2,5.7,7
  C305.2,21.9,302.7,27,297.7,29.1z"/>
<path class="st0" d="M322.4,66.6c-4.8,0-9.9-1-13.6-2.9l2.4-8c5.4,5.2,20.4,5.2,20.4-3.2c0-11.2-22.6-10.1-22.6-27
  c0-8.5,6.6-13.9,16.8-13.9c4,0,8.2,0.6,11.7,2.5l-2.9,7.9c-3.8-4.5-16.9-4.9-16.9,2.6c0,9.8,22.5,10.8,22.5,25.5
  C340.2,59.4,334,66.6,322.4,66.6z"/>
<g>
  <path class="st0" d="M380,64.9H359l4.9-6.8V9.2L359,2.4h21.5c12.7,0,18.4,7.4,18.4,15.4c0,7.9-4,12.7-8.9,14.2
    c6.1,1.4,11.4,7.5,11.4,15C401.3,58.2,394.4,64.9,380,64.9z M380.2,9.6h-6.8V29h5.6c6.4,0,10.3-4.2,10.3-10.7
    C389.3,13.8,386.4,9.6,380.2,9.6z M381.7,36.6h-8.3v20.8h7.5c7,0,10.9-4.3,10.9-10.1C391.7,41.1,387.8,36.6,381.7,36.6z"/>
  <path class="st0" d="M425.6,65.8c-11.2,0-17.7-7-17.7-20.5V16.8l-3.3-4.7h12.3v33c0,8.5,3.1,12.9,9.1,12.9c6,0,9.3-4.5,9.3-12.5
    V17.8l-4-5.7h12.1v33.7C443.3,57.8,437.4,65.8,425.6,65.8z"/>
  <path class="st0" d="M462,66.1c-4.8,0-9.9-1-13.6-2.9l2.4-8c5.4,5.2,20.4,5.2,20.4-3.2c0-11.2-22.6-10.1-22.6-27
    c0-8.5,6.6-13.9,16.8-13.9c4,0,8.2,0.6,11.7,2.5l-2.8,7.9c-3.8-4.5-16.9-4.9-16.9,2.6c0,9.8,22.5,10.8,22.5,25.5
    C479.9,58.9,473.6,66.1,462,66.1z"/>
  <path class="st0" d="M486.8,64.9V17.2l-3.7-5.1h12.7v52.8H486.8z"/>
  <path class="st0" d="M535.7,64.9c-5.6-9.6-22.3-34.8-22.3-34.8v34.9H506V19.3l-5.2-7.2H512l22,33.4V12.1h7.5v52.7H535.7z"/>
  <path class="st0" d="M576.9,64.9H551V15.1l-2.1-2.9h29.4l-2.9,7H560v15.4h15.1l-2.9,7.3H560v15.5H580L576.9,64.9z"/>
  <path class="st0" d="M596,66.1c-4.8,0-9.9-1-13.6-2.9l2.4-8c5.4,5.2,20.4,5.2,20.4-3.2c0-11.2-22.6-10.1-22.6-27
    c0-8.5,6.6-13.9,16.8-13.9c4,0,8.2,0.6,11.7,2.5l-2.8,7.9c-3.8-4.5-16.9-4.9-16.9,2.6c0,9.8,22.5,10.8,22.5,25.5
    C613.8,58.9,607.6,66.1,596,66.1z"/>
  <path class="st0" d="M628.8,66.1c-4.8,0-9.9-1-13.6-2.9l2.4-8c5.4,5.2,20.4,5.2,20.4-3.2c0-11.2-22.6-10.1-22.6-27
    c0-8.5,6.6-13.9,16.8-13.9c4,0,8.2,0.6,11.7,2.5l-2.8,7.9c-3.8-4.5-16.9-4.9-16.9,2.6c0,9.8,22.5,10.8,22.5,25.5
    C646.6,58.9,640.4,66.1,628.8,66.1z"/>
</g>
<path class="st0" d="M683.1,66.4h-21.2l4.7-7V10.9l-4.7-7h20.2c18.2,0,26.8,11.5,26.8,30C708.9,55.1,700,66.4,683.1,66.4z
   M681.5,11.3h-4.9v47.5h5.7c10.3,0,16.3-7.1,16.3-24C698.6,19.6,693.2,11.3,681.5,11.3z"/>
<path class="st0" d="M741.8,66.4l-4-13.4h-15.1l-4,13.4h-9.3l17.1-47.8l-1.9-4.9h10.7l16.7,52.8H741.8z M730.4,27.4l-5.9,18.8h11.6
  L730.4,27.4z"/>
<path class="st0" d="M757.9,66.4V18.7l-3.7-5.1h12.7v52.8H757.9z"/>
<path class="st0" d="M800.5,66.4h-24.8V16.2l-1.9-2.6h10.9v45.1h18.6L800.5,66.4z"/>
<path class="st0" d="M820.5,44.3v22.1h-9v-22L797.2,18l-3.1-4.3h11l11.8,22.7l9.8-18.5l-3.1-4.2h13.7L820.5,44.3z"/>
<path class="st1" d="M849,21.5c-2.9,0-5-2.2-5-5.1c0-2.9,2.1-5.1,5-5.1c2.9,0,5,2.2,5,5.1C854,19.3,851.9,21.5,849,21.5z M849,22.3
  c3.3,0,5.9-2.6,5.9-5.9c0-3.2-2.6-5.9-5.9-5.9c-3.3,0-5.9,2.6-5.9,5.9C843.1,19.6,845.7,22.3,849,22.3z M849.8,16.6
  c1.2,0,2.1-0.5,2.1-1.8c0-1.1-0.6-1.7-2.3-1.7h-2.9v6.6h0.8v-3h1.5l1.9,3h1L849.8,16.6z M847.5,16v-2.3h1.9c0.8,0,1.6,0.1,1.6,1.2
  c0,1.3-1.4,1.2-2.3,1.2H847.5z"/>
</svg>