<?xml version="1.0" encoding="utf-8"?>
<!-- Generator: Adobe Illustrator 22.1.0, SVG Export Plug-In . SVG Version: 6.00 Build 0)  -->
<svg version="1.1" id="Layer_1" xmlns="http://www.w3.org/2000/svg" xmlns:xlink="http://www.w3.org/1999/xlink" x="0px" y="0px"
   viewBox="0 0 472 95.3" style="enable-background:new 0 0 472 95.3;" xml:space="preserve">
<style type="text/css">
  .st0{enable-background:new    ;}
  .st1{fill:#ffffff;}
</style>
<g>
  <g class="st0">
    <path class="st1" d="M3,91.8V70.1h6.9c1.3,0,2.5,0.1,3.5,0.4s1.8,0.6,2.4,1.1c0.6,0.5,1.1,1.1,1.4,1.8s0.4,1.5,0.4,2.4
      c0,0.5-0.1,1.1-0.2,1.5c-0.2,0.5-0.4,1-0.8,1.4c-0.3,0.4-0.8,0.8-1.3,1.1c-0.5,0.3-1.1,0.6-1.8,0.8c1.6,0.3,2.8,0.9,3.6,1.7
      c0.8,0.8,1.2,1.9,1.2,3.3c0,0.9-0.2,1.8-0.5,2.5c-0.3,0.8-0.8,1.4-1.5,2c-0.7,0.5-1.5,1-2.4,1.3c-1,0.3-2,0.4-3.2,0.4
      C10.7,91.8,3,91.8,3,91.8z M5.9,79.8h3.9c0.8,0,1.5-0.1,2.2-0.3c0.6-0.2,1.1-0.4,1.5-0.8c0.4-0.3,0.7-0.7,0.9-1.2s0.3-1,0.3-1.5
      c0-1.3-0.4-2.2-1.2-2.8c-0.8-0.6-2-0.9-3.6-0.9h-4C5.9,72.3,5.9,79.8,5.9,79.8z M5.9,81.9v7.6h4.7c0.8,0,1.6-0.1,2.2-0.3
      c0.6-0.2,1.1-0.5,1.5-0.8s0.7-0.8,0.9-1.2c0.2-0.5,0.3-1,0.3-1.6c0-1.1-0.4-2-1.2-2.7s-2-1-3.6-1H5.9z"/>
    <path class="st1" d="M30,83.2v8.7h-2.9v-8.7l-8-13.1h2.6c0.3,0,0.5,0.1,0.6,0.2c0.2,0.1,0.3,0.3,0.4,0.5l5,8.5
      c0.2,0.4,0.3,0.7,0.5,1c0.1,0.3,0.3,0.6,0.4,0.9c0.1-0.3,0.2-0.6,0.4-0.9c0.1-0.3,0.3-0.6,0.5-1l5-8.5c0.1-0.2,0.2-0.3,0.4-0.5
      c0.2-0.1,0.4-0.2,0.6-0.2H38L30,83.2z"/>
    <path class="st1" d="M50.3,91.8h-2.9V70.1h2.9V91.8z"/>
    <path class="st1" d="M57.7,70.1c0.1,0,0.2,0,0.2,0.1c0.1,0,0.1,0.1,0.2,0.2c0.1,0.1,0.1,0.1,0.2,0.2L71,86.9c0-0.3,0-0.5-0.1-0.8
      c0-0.2,0-0.5,0-0.7V70.1h2.6v21.7H72c-0.2,0-0.4,0-0.6-0.1s-0.3-0.2-0.5-0.4L58.4,74.9c0,0.3,0,0.5,0,0.7s0,0.5,0,0.7v15.5h-2.6
      V70.1h1.5C57.5,70.1,57.6,70.1,57.7,70.1z"/>
    <path class="st1" d="M76.4,70.1h2.4c0.3,0,0.5,0.1,0.6,0.2c0.2,0.1,0.3,0.3,0.4,0.5l6.1,15.3c0.1,0.3,0.3,0.7,0.4,1.1
      s0.2,0.8,0.3,1.3c0.1-0.4,0.2-0.9,0.3-1.3c0.1-0.4,0.2-0.8,0.4-1.1l6.1-15.3c0.1-0.2,0.2-0.3,0.4-0.5c0.2-0.1,0.4-0.2,0.6-0.2h2.4
      l-8.9,21.7h-2.6L76.4,70.1z"/>
    <path class="st1" d="M113,70.1v2.4h-10.5v7.2h8.5V82h-8.5v7.4H113v2.4H99.6V70.1H113z"/>
    <path class="st1" d="M128.2,73.5c-0.1,0.2-0.2,0.3-0.3,0.3c-0.1,0.1-0.2,0.1-0.4,0.1c-0.2,0-0.4-0.1-0.6-0.3
      c-0.2-0.2-0.5-0.4-0.9-0.6c-0.3-0.2-0.8-0.4-1.3-0.6s-1.1-0.3-1.8-0.3c-0.7,0-1.2,0.1-1.7,0.3s-0.9,0.4-1.3,0.7
      c-0.3,0.3-0.6,0.7-0.8,1.1c-0.2,0.4-0.3,0.9-0.3,1.3c0,0.6,0.1,1.1,0.4,1.5s0.7,0.7,1.2,1s1,0.5,1.7,0.7c0.6,0.2,1.3,0.4,1.9,0.6
      c0.7,0.2,1.3,0.5,1.9,0.8s1.2,0.6,1.7,1.1c0.5,0.4,0.9,0.9,1.2,1.6c0.3,0.6,0.4,1.4,0.4,2.3c0,1-0.2,1.8-0.5,2.7
      c-0.3,0.8-0.8,1.6-1.4,2.2s-1.4,1.1-2.3,1.5s-1.9,0.5-3.1,0.5c-1.4,0-2.7-0.3-3.9-0.8c-1.2-0.5-2.1-1.2-3-2.1l0.8-1.4
      c0.1-0.1,0.2-0.2,0.3-0.3c0.1-0.1,0.2-0.1,0.4-0.1c0.1,0,0.3,0.1,0.4,0.2c0.2,0.1,0.4,0.2,0.6,0.4c0.2,0.2,0.5,0.3,0.7,0.5
      c0.3,0.2,0.6,0.4,0.9,0.5c0.3,0.2,0.7,0.3,1.2,0.4c0.4,0.1,0.9,0.2,1.5,0.2c0.7,0,1.3-0.1,1.9-0.3c0.5-0.2,1-0.5,1.4-0.8
      s0.7-0.8,0.9-1.3c0.2-0.5,0.3-1,0.3-1.6c0-0.7-0.1-1.2-0.4-1.6s-0.7-0.8-1.2-1.1c-0.5-0.3-1-0.5-1.7-0.7c-0.6-0.2-1.3-0.4-1.9-0.6
      s-1.3-0.4-1.9-0.7c-0.6-0.3-1.2-0.6-1.7-1.1c-0.5-0.4-0.9-1-1.2-1.6c-0.3-0.7-0.4-1.5-0.4-2.4c0-0.8,0.1-1.5,0.4-2.2
      s0.7-1.4,1.3-1.9c0.6-0.6,1.3-1,2.1-1.3c0.8-0.3,1.8-0.5,2.9-0.5c1.2,0,2.3,0.2,3.3,0.6s1.9,0.9,2.6,1.7L128.2,73.5z"/>
    <path class="st1" d="M148.3,70.1v2.5h-7v19.3h-2.9V72.6h-7.1v-2.5H148.3z"/>
    <path class="st1" d="M170.6,81c0,1.6-0.3,3.1-0.8,4.5s-1.2,2.5-2.2,3.5c-0.9,1-2.1,1.7-3.4,2.3c-1.3,0.5-2.8,0.8-4.4,0.8
      c-1.6,0-3.1-0.3-4.4-0.8c-1.3-0.5-2.4-1.3-3.4-2.3c-0.9-1-1.7-2.2-2.2-3.5c-0.5-1.4-0.8-2.9-0.8-4.5s0.3-3.1,0.8-4.5
      S151,74,152,73c0.9-1,2.1-1.8,3.4-2.3c1.3-0.5,2.8-0.8,4.4-0.8c1.6,0,3.1,0.3,4.4,0.8c1.3,0.5,2.5,1.3,3.4,2.3s1.7,2.2,2.2,3.5
      C170.4,77.8,170.6,79.3,170.6,81z M167.6,81c0-1.3-0.2-2.5-0.5-3.6c-0.4-1.1-0.9-2-1.5-2.7c-0.7-0.7-1.5-1.3-2.4-1.7
      c-1-0.4-2-0.6-3.2-0.6s-2.2,0.2-3.2,0.6s-1.8,1-2.4,1.7c-0.7,0.7-1.2,1.6-1.6,2.7s-0.5,2.3-0.5,3.6c0,1.3,0.2,2.5,0.5,3.6
      c0.4,1.1,0.9,2,1.6,2.7c0.7,0.7,1.5,1.3,2.4,1.7c1,0.4,2,0.6,3.2,0.6s2.2-0.2,3.2-0.6s1.8-0.9,2.4-1.7c0.7-0.7,1.2-1.6,1.5-2.7
      C167.4,83.5,167.6,82.3,167.6,81z"/>
    <path class="st1" d="M177.7,82.7v9.1h-2.9V70.1h6.1c1.4,0,2.6,0.1,3.6,0.4s1.8,0.7,2.5,1.2s1.1,1.2,1.4,1.9
      c0.3,0.7,0.5,1.6,0.5,2.5c0,0.8-0.1,1.5-0.4,2.2c-0.2,0.7-0.6,1.3-1.1,1.8s-1,1-1.7,1.4s-1.4,0.7-2.3,0.8c0.4,0.2,0.7,0.6,1,0.9
      l6.3,8.6h-2.6c-0.5,0-0.9-0.2-1.2-0.6l-5.6-7.8c-0.2-0.2-0.4-0.4-0.6-0.5c-0.2-0.1-0.5-0.2-0.9-0.2
      C179.8,82.7,177.7,82.7,177.7,82.7z M177.7,80.6h3.1c0.8,0,1.6-0.1,2.3-0.3c0.7-0.2,1.2-0.5,1.6-0.9c0.4-0.4,0.8-0.8,1-1.4
      c0.2-0.5,0.3-1.1,0.3-1.7c0-1.3-0.4-2.3-1.3-2.9c-0.8-0.7-2.1-1-3.8-1h-3.2L177.7,80.6L177.7,80.6z"/>
    <path class="st1" d="M195.1,68.6c0.4,0.7,0.7,1.5,0.9,2.3s0.2,1.6,0,2.4c-0.1,0.8-0.4,1.5-0.8,2.2c-0.4,0.7-0.9,1.4-1.5,1.9
      l-0.8-0.5c-0.2-0.1-0.2-0.2-0.2-0.4s0.1-0.3,0.1-0.4c0.3-0.3,0.5-0.7,0.7-1.2s0.3-1,0.4-1.5c0.1-0.5,0-1.1-0.1-1.6
      c-0.1-0.6-0.3-1.1-0.6-1.6c-0.1-0.2-0.2-0.4-0.1-0.6c0.1-0.2,0.2-0.3,0.4-0.4L195.1,68.6z"/>
    <path class="st1" d="M211.4,73.5c-0.1,0.2-0.2,0.3-0.3,0.3s-0.2,0.1-0.4,0.1s-0.4-0.1-0.6-0.3c-0.2-0.2-0.5-0.4-0.9-0.6
      c-0.3-0.2-0.8-0.4-1.3-0.6s-1.1-0.3-1.8-0.3s-1.2,0.1-1.7,0.3c-0.5,0.2-0.9,0.4-1.3,0.7c-0.3,0.3-0.6,0.7-0.8,1.1
      s-0.3,0.9-0.3,1.3c0,0.6,0.1,1.1,0.4,1.5c0.3,0.4,0.7,0.7,1.2,1s1,0.5,1.7,0.7c0.6,0.2,1.3,0.4,1.9,0.6c0.7,0.2,1.3,0.5,1.9,0.8
      c0.6,0.3,1.2,0.6,1.7,1.1c0.5,0.4,0.9,0.9,1.2,1.6c0.3,0.6,0.4,1.4,0.4,2.3c0,1-0.2,1.8-0.5,2.7c-0.3,0.8-0.8,1.6-1.4,2.2
      s-1.4,1.1-2.3,1.5c-0.9,0.4-1.9,0.5-3.1,0.5c-1.4,0-2.7-0.3-3.9-0.8s-2.1-1.2-3-2.1l0.8-1.4c0.1-0.1,0.2-0.2,0.3-0.3
      s0.2-0.1,0.4-0.1c0.1,0,0.3,0.1,0.4,0.2c0.2,0.1,0.4,0.2,0.6,0.4c0.2,0.2,0.5,0.3,0.7,0.5c0.3,0.2,0.6,0.4,0.9,0.5
      c0.3,0.2,0.7,0.3,1.2,0.4c0.4,0.1,0.9,0.2,1.5,0.2c0.7,0,1.3-0.1,1.9-0.3c0.5-0.2,1-0.5,1.4-0.8s0.7-0.8,0.9-1.3s0.3-1,0.3-1.6
      c0-0.7-0.1-1.2-0.4-1.6c-0.3-0.4-0.7-0.8-1.2-1.1c-0.5-0.3-1-0.5-1.7-0.7c-0.6-0.2-1.3-0.4-1.9-0.6c-0.6-0.2-1.3-0.4-1.9-0.7
      c-0.6-0.3-1.2-0.6-1.7-1.1c-0.5-0.4-0.9-1-1.2-1.6c-0.3-0.7-0.4-1.5-0.4-2.4c0-0.8,0.1-1.5,0.4-2.2c0.3-0.7,0.7-1.4,1.3-1.9
      c0.6-0.6,1.3-1,2.1-1.3s1.8-0.5,2.9-0.5c1.2,0,2.3,0.2,3.3,0.6s1.9,0.9,2.6,1.7L211.4,73.5z"/>
    <path class="st1" d="M224.5,91.8V70.1h6.9c1.3,0,2.5,0.1,3.5,0.4s1.8,0.6,2.4,1.1c0.6,0.5,1.1,1.1,1.4,1.8
      c0.3,0.7,0.4,1.5,0.4,2.4c0,0.5-0.1,1.1-0.2,1.5c-0.2,0.5-0.4,1-0.8,1.4c-0.3,0.4-0.8,0.8-1.3,1.1c-0.5,0.3-1.1,0.6-1.8,0.8
      c1.6,0.3,2.8,0.9,3.6,1.7c0.8,0.8,1.2,1.9,1.2,3.3c0,0.9-0.2,1.8-0.5,2.5s-0.8,1.4-1.5,2c-0.7,0.5-1.5,1-2.4,1.3s-2,0.4-3.2,0.4
      C232.2,91.8,224.5,91.8,224.5,91.8z M227.5,79.8h3.9c0.8,0,1.5-0.1,2.2-0.3s1.1-0.4,1.5-0.8c0.4-0.3,0.7-0.7,0.9-1.2
      s0.3-1,0.3-1.5c0-1.3-0.4-2.2-1.2-2.8c-0.8-0.6-2-0.9-3.6-0.9h-4L227.5,79.8L227.5,79.8z M227.5,81.9v7.6h4.7
      c0.8,0,1.6-0.1,2.2-0.3c0.6-0.2,1.1-0.5,1.5-0.8s0.7-0.8,0.9-1.2c0.2-0.5,0.3-1,0.3-1.6c0-1.1-0.4-2-1.2-2.7s-2-1-3.6-1H227.5z"/>
    <path class="st1" d="M252.5,89.5c0.9,0,1.7-0.2,2.4-0.5s1.3-0.7,1.8-1.3c0.5-0.5,0.9-1.2,1.1-2c0.3-0.8,0.4-1.6,0.4-2.5V70.1h2.9
      v13.2c0,1.3-0.2,2.4-0.6,3.5s-1,2-1.7,2.8s-1.7,1.4-2.7,1.8c-1.1,0.4-2.3,0.7-3.6,0.7s-2.5-0.2-3.6-0.7c-1.1-0.4-2-1.1-2.7-1.8
      c-0.7-0.8-1.3-1.7-1.7-2.8c-0.4-1.1-0.6-2.2-0.6-3.5V70.1h2.9v13.2c0,0.9,0.1,1.7,0.4,2.5s0.6,1.4,1.1,2c0.5,0.5,1.1,1,1.8,1.3
      C250.8,89.3,251.6,89.5,252.5,89.5z"/>
    <path class="st1" d="M277.6,73.5c-0.1,0.2-0.2,0.3-0.3,0.3s-0.2,0.1-0.4,0.1c-0.2,0-0.4-0.1-0.6-0.3c-0.2-0.2-0.5-0.4-0.9-0.6
      c-0.3-0.2-0.8-0.4-1.3-0.6s-1.1-0.3-1.8-0.3c-0.7,0-1.2,0.1-1.7,0.3c-0.5,0.2-0.9,0.4-1.3,0.7c-0.3,0.3-0.6,0.7-0.8,1.1
      c-0.2,0.4-0.3,0.9-0.3,1.3c0,0.6,0.1,1.1,0.4,1.5s0.7,0.7,1.2,1s1,0.5,1.7,0.7c0.6,0.2,1.3,0.4,1.9,0.6c0.7,0.2,1.3,0.5,1.9,0.8
      s1.2,0.6,1.7,1.1c0.5,0.4,0.9,0.9,1.2,1.6c0.3,0.6,0.4,1.4,0.4,2.3c0,1-0.2,1.8-0.5,2.7c-0.3,0.8-0.8,1.6-1.4,2.2
      s-1.4,1.1-2.3,1.5s-1.9,0.5-3.1,0.5c-1.4,0-2.7-0.3-3.9-0.8c-1.2-0.5-2.1-1.2-3-2.1l0.8-1.4c0.1-0.1,0.2-0.2,0.3-0.3
      c0.1-0.1,0.2-0.1,0.4-0.1c0.1,0,0.3,0.1,0.4,0.2c0.2,0.1,0.4,0.2,0.6,0.4c0.2,0.2,0.5,0.3,0.7,0.5c0.3,0.2,0.6,0.4,0.9,0.5
      c0.3,0.2,0.7,0.3,1.2,0.4c0.4,0.1,0.9,0.2,1.5,0.2c0.7,0,1.3-0.1,1.9-0.3c0.5-0.2,1-0.5,1.4-0.8s0.7-0.8,0.9-1.3
      c0.2-0.5,0.3-1,0.3-1.6c0-0.7-0.1-1.2-0.4-1.6s-0.7-0.8-1.2-1.1c-0.5-0.3-1-0.5-1.7-0.7c-0.6-0.2-1.3-0.4-1.9-0.6
      s-1.3-0.4-1.9-0.7c-0.6-0.3-1.2-0.6-1.7-1.1c-0.5-0.4-0.9-1-1.2-1.6c-0.3-0.7-0.4-1.5-0.4-2.4c0-0.8,0.1-1.5,0.4-2.2
      s0.7-1.4,1.3-1.9c0.6-0.6,1.3-1,2.1-1.3c0.8-0.3,1.8-0.5,2.9-0.5c1.2,0,2.3,0.2,3.3,0.6s1.9,0.9,2.6,1.7L277.6,73.5z"/>
    <path class="st1" d="M285.9,91.8H283V70.1h2.9V91.8z"/>
    <path class="st1" d="M293.3,70.1c0.1,0,0.2,0,0.2,0.1c0.1,0,0.1,0.1,0.2,0.2s0.1,0.1,0.2,0.2L306.5,87c0-0.3,0-0.5-0.1-0.8
      c0-0.2,0-0.5,0-0.7V70.1h2.6v21.7h-1.5c-0.2,0-0.4,0-0.6-0.1s-0.3-0.2-0.5-0.4l-12.6-16.4c0,0.3,0,0.5,0,0.7s0,0.5,0,0.7v15.5
      h-2.6V70.1h1.5C293.1,70.1,293.2,70.1,293.3,70.1z"/>
    <path class="st1" d="M328,70.1v2.4h-10.5v7.2h8.5V82h-8.5v7.4H328v2.4h-13.4V70.1H328z"/>
    <path class="st1" d="M343.2,73.5c-0.1,0.2-0.2,0.3-0.3,0.3s-0.2,0.1-0.4,0.1c-0.2,0-0.4-0.1-0.6-0.3c-0.2-0.2-0.5-0.4-0.9-0.6
      c-0.3-0.2-0.8-0.4-1.3-0.6s-1.1-0.3-1.8-0.3c-0.7,0-1.2,0.1-1.7,0.3c-0.5,0.2-0.9,0.4-1.3,0.7c-0.3,0.3-0.6,0.7-0.8,1.1
      c-0.2,0.4-0.3,0.9-0.3,1.3c0,0.6,0.1,1.1,0.4,1.5s0.7,0.7,1.2,1s1,0.5,1.7,0.7c0.6,0.2,1.3,0.4,1.9,0.6c0.7,0.2,1.3,0.5,1.9,0.8
      s1.2,0.6,1.7,1.1c0.5,0.4,0.9,0.9,1.2,1.6c0.3,0.6,0.4,1.4,0.4,2.3c0,1-0.2,1.8-0.5,2.7c-0.3,0.8-0.8,1.6-1.4,2.2
      s-1.4,1.1-2.3,1.5s-1.9,0.5-3.1,0.5c-1.4,0-2.7-0.3-3.9-0.8c-1.2-0.5-2.1-1.2-3-2.1l0.8-1.4c0.1-0.1,0.2-0.2,0.3-0.3
      c0.1-0.1,0.2-0.1,0.4-0.1c0.1,0,0.3,0.1,0.4,0.2c0.2,0.1,0.4,0.2,0.6,0.4c0.2,0.2,0.5,0.3,0.7,0.5c0.3,0.2,0.6,0.4,0.9,0.5
      c0.3,0.2,0.7,0.3,1.2,0.4c0.4,0.1,0.9,0.2,1.5,0.2c0.7,0,1.3-0.1,1.9-0.3c0.5-0.2,1-0.5,1.4-0.8s0.7-0.8,0.9-1.3
      c0.2-0.5,0.3-1,0.3-1.6c0-0.7-0.1-1.2-0.4-1.6s-0.7-0.8-1.2-1.1c-0.5-0.3-1-0.5-1.7-0.7c-0.6-0.2-1.3-0.4-1.9-0.6
      s-1.3-0.4-1.9-0.7c-0.6-0.3-1.2-0.6-1.7-1.1c-0.5-0.4-0.9-1-1.2-1.6c-0.3-0.7-0.4-1.5-0.4-2.4c0-0.8,0.1-1.5,0.4-2.2
      s0.7-1.4,1.3-1.9c0.6-0.6,1.3-1,2.1-1.3c0.8-0.3,1.8-0.5,2.9-0.5c1.2,0,2.3,0.2,3.3,0.6s1.9,0.9,2.6,1.7L343.2,73.5z"/>
    <path class="st1" d="M359.7,73.5c-0.1,0.2-0.2,0.3-0.3,0.3s-0.2,0.1-0.4,0.1c-0.2,0-0.4-0.1-0.6-0.3c-0.2-0.2-0.5-0.4-0.9-0.6
      c-0.3-0.2-0.8-0.4-1.3-0.6s-1.1-0.3-1.8-0.3c-0.7,0-1.2,0.1-1.7,0.3s-0.9,0.4-1.3,0.7c-0.3,0.3-0.6,0.7-0.8,1.1
      c-0.2,0.4-0.3,0.9-0.3,1.3c0,0.6,0.1,1.1,0.4,1.5s0.7,0.7,1.2,1s1,0.5,1.7,0.7c0.6,0.2,1.3,0.4,1.9,0.6c0.7,0.2,1.3,0.5,1.9,0.8
      s1.2,0.6,1.7,1.1c0.5,0.4,0.9,0.9,1.2,1.6c0.3,0.6,0.4,1.4,0.4,2.3c0,1-0.2,1.8-0.5,2.7c-0.3,0.8-0.8,1.6-1.4,2.2
      s-1.4,1.1-2.3,1.5s-1.9,0.5-3.1,0.5c-1.4,0-2.7-0.3-3.9-0.8c-1.2-0.5-2.1-1.2-3-2.1l0.8-1.4c0.1-0.1,0.2-0.2,0.3-0.3
      c0.1-0.1,0.2-0.1,0.4-0.1c0.1,0,0.3,0.1,0.4,0.2c0.2,0.1,0.4,0.2,0.6,0.4c0.2,0.2,0.5,0.3,0.7,0.5c0.3,0.2,0.6,0.4,0.9,0.5
      c0.3,0.2,0.7,0.3,1.2,0.4c0.4,0.1,0.9,0.2,1.5,0.2c0.7,0,1.3-0.1,1.9-0.3c0.5-0.2,1-0.5,1.4-0.8s0.7-0.8,0.9-1.3
      c0.2-0.5,0.3-1,0.3-1.6c0-0.7-0.1-1.2-0.4-1.6s-0.7-0.8-1.2-1.1c-0.5-0.3-1-0.5-1.7-0.7c-0.6-0.2-1.3-0.4-1.9-0.6
      s-1.3-0.4-1.9-0.7c-0.6-0.3-1.2-0.6-1.7-1.1c-0.5-0.4-0.9-1-1.2-1.6c-0.3-0.7-0.4-1.5-0.4-2.4c0-0.8,0.1-1.5,0.4-2.2
      s0.7-1.4,1.3-1.9c0.6-0.6,1.3-1,2.1-1.3c0.8-0.3,1.8-0.5,2.9-0.5c1.2,0,2.3,0.2,3.3,0.6s1.9,0.9,2.6,1.7L359.7,73.5z"/>
    <path class="st1" d="M391.6,81c0,1.6-0.3,3.1-0.8,4.4s-1.2,2.5-2.2,3.4c-0.9,1-2.1,1.7-3.4,2.2s-2.8,0.8-4.4,0.8h-8.1V70.1h8.1
      c1.6,0,3.1,0.3,4.4,0.8s2.4,1.3,3.4,2.2c0.9,1,1.7,2.1,2.2,3.4S391.6,79.3,391.6,81z M388.6,81c0-1.3-0.2-2.5-0.5-3.6
      s-0.9-1.9-1.5-2.7c-0.7-0.7-1.5-1.3-2.4-1.7c-1-0.4-2-0.6-3.2-0.6h-5.2v17h5.2c1.2,0,2.2-0.2,3.2-0.6c0.9-0.4,1.8-0.9,2.4-1.7
      c0.7-0.7,1.2-1.6,1.5-2.7C388.4,83.5,388.6,82.3,388.6,81z"/>
    <path class="st1" d="M413,91.8h-2.3c-0.3,0-0.5-0.1-0.6-0.2c-0.2-0.1-0.3-0.3-0.4-0.5l-2-5.2h-9.8l-2,5.2
      c-0.1,0.2-0.2,0.3-0.3,0.5c-0.2,0.1-0.4,0.2-0.6,0.2h-2.3l8.7-21.7h3L413,91.8z M398.7,83.7h8.1l-3.4-8.8
      c-0.1-0.3-0.2-0.6-0.3-0.9c-0.1-0.3-0.2-0.7-0.3-1.1c-0.1,0.4-0.2,0.8-0.3,1.1c-0.1,0.3-0.2,0.7-0.3,0.9L398.7,83.7z"/>
    <path class="st1" d="M418.8,91.8h-2.9V70.1h2.9V91.8z"/>
    <path class="st1" d="M427.2,89.3h9.4v2.5h-12.3V70.1h2.9V89.3z"/>
    <path class="st1" d="M445.2,83.2v8.7h-2.9v-8.7l-8-13.1h2.6c0.3,0,0.5,0.1,0.6,0.2c0.2,0.1,0.3,0.3,0.4,0.5l5,8.5
      c0.2,0.4,0.3,0.7,0.5,1c0.1,0.3,0.3,0.6,0.4,0.9c0.1-0.3,0.2-0.6,0.4-0.9c0.1-0.3,0.3-0.6,0.5-1l5-8.5c0.1-0.2,0.2-0.3,0.4-0.5
      c0.2-0.1,0.4-0.2,0.6-0.2h2.6L445.2,83.2z"/>
  </g>
  <g class="st0">
    <path class="st1" d="M3,56.8V2.2h11.2v44.6h26.7v10.1H3V56.8z"/>
    <path class="st1" d="M71,44.6h10.8c-1.1,4.3-3.3,7.6-6.6,10s-7.3,3.6-12.1,3.6c-5.8,0-10.5-2-13.9-5.9s-5.1-9.2-5.1-15.9
      c0-6.6,1.7-11.8,5-15.6c3.4-3.8,8-5.7,13.8-5.7c6.2,0,11,1.9,14.3,5.6c3.4,3.7,5,9.1,5,16c0,0.8,0,1.3,0,1.7s0,0.7-0.1,1.1H55.3
      c0.1,3.2,0.9,5.6,2.3,7.2c1.4,1.6,3.4,2.4,6,2.4c1.9,0,3.4-0.4,4.6-1.1C69.4,47.2,70.3,46.1,71,44.6z M55.3,32.4h15.9
      c-0.1-2.7-0.8-4.8-2.2-6.2c-1.3-1.4-3.3-2.1-5.8-2.1c-2.4,0-4.2,0.7-5.5,2.2C56.3,27.6,55.5,29.7,55.3,32.4z"/>
    <path class="st1" d="M112.6,51.8c-1.4,2.1-3.1,3.7-5.3,4.8c-2.2,1.1-4.8,1.7-7.7,1.7c-3.9,0-6.9-1.1-9-3.3s-3.2-5.4-3.2-9.5
      c0-3.8,1.1-6.7,3.2-8.7s5.6-3.4,10.5-4.1c1.1-0.2,2.6-0.4,4.4-0.6c4.6-0.6,6.9-1.9,6.9-4c0-1.6-0.5-2.8-1.5-3.5s-2.7-1.1-5.1-1.1
      c-2.2,0-3.8,0.4-5,1.3s-1.7,2.1-1.7,3.7v0.6H88.8v-0.7c0-4.1,1.5-7.4,4.4-9.7c2.9-2.4,7-3.5,12.1-3.5c5.6,0,10,1,13,2.9
      c3,2,4.5,4.8,4.5,8.5v22.9c0,1.7,0.2,2.9,0.5,3.8c0.3,0.8,0.9,1.5,1.7,1.9V57h-11.2c-0.4-0.7-0.7-1.5-0.9-2.3
      C112.7,53.7,112.6,52.8,112.6,51.8z M112.4,37c-1.8,0.8-3.8,1.5-6.1,2c-2.3,0.5-3.5,0.8-3.5,0.8c-1.9,0.5-3.2,1.2-4,2
      s-1.1,1.9-1.1,3.4s0.5,2.7,1.4,3.5c1,0.9,2.3,1.3,3.9,1.3c2.9,0,5.2-0.8,6.9-2.5c1.7-1.6,2.5-3.9,2.5-6.7
      C112.4,40.8,112.4,37,112.4,37z"/>
    <path class="st1" d="M169.3,2.2v54.7H159v-5.5c-1.6,2.4-3.3,4.1-5.3,5.2c-1.9,1.1-4.2,1.7-6.8,1.7c-5,0-9-2-12.1-5.9
      s-4.6-9.1-4.6-15.5s1.5-11.7,4.6-15.7s7.1-6,11.9-6c2.6,0,4.9,0.5,7,1.6c2,1.1,3.7,2.7,5.1,4.8V2.2H169.3z M141,36.4
      c0,4.1,0.8,7.2,2.3,9.3s3.7,3.2,6.6,3.2c2.9,0,5.1-1.1,6.6-3.2c1.5-2.1,2.3-5.2,2.3-9.4c0-3.8-0.8-6.7-2.4-8.8
      c-1.6-2.1-3.8-3.1-6.7-3.1c-2.7,0-4.8,1.1-6.4,3.2S141,32.7,141,36.4z"/>
    <path class="st1" d="M203.8,44.6h10.8c-1.1,4.3-3.3,7.6-6.6,10s-7.3,3.6-12.1,3.6c-5.8,0-10.5-2-13.9-5.9s-5.1-9.2-5.1-15.9
      c0-6.6,1.7-11.8,5-15.6c3.4-3.8,8-5.7,13.8-5.7c6.2,0,11,1.9,14.3,5.6c3.4,3.7,5,9.1,5,16c0,0.8,0,1.3,0,1.7s0,0.7-0.1,1.1H188
      c0.1,3.2,0.9,5.6,2.3,7.2c1.4,1.6,3.4,2.4,6,2.4c1.9,0,3.4-0.4,4.6-1.1C202.2,47.2,203.1,46.1,203.8,44.6z M188.1,32.4H204
      c-0.1-2.7-0.8-4.8-2.2-6.2c-1.3-1.4-3.3-2.1-5.8-2.1c-2.4,0-4.2,0.7-5.5,2.2C189.1,27.6,188.3,29.7,188.1,32.4z"/>
    <path class="st1" d="M222.3,56.8V16.5h10v6.9c1.4-2.8,3.1-4.8,4.9-6.1c1.9-1.3,4.1-1.9,6.7-1.9c0.4,0,0.7,0,1,0
      c0.2,0,0.4,0,0.6,0.1v10.9h-3.6c-2.9,0-5.2,0.8-6.6,2.3c-1.5,1.5-2.2,3.8-2.2,6.8v21.3H222.3z"/>
    <path class="st1" d="M251.7,2.2h10.5v19.3c1.3-2.1,3-3.7,5-4.8c2-1.1,4.3-1.6,6.9-1.6c4.9,0,8.9,2,11.9,6c3.1,4,4.6,9.2,4.6,15.7
      c0,6.4-1.5,11.5-4.6,15.5c-3.1,3.9-7.1,5.9-12.1,5.9c-2.6,0-4.9-0.5-6.8-1.6s-3.7-2.8-5.2-5.2v5.5h-10.3V2.2H251.7z M279.9,36.4
      c0-3.7-0.8-6.6-2.3-8.7s-3.7-3.2-6.4-3.2c-2.9,0-5.1,1-6.7,3.1s-2.4,5-2.4,8.8c0,4.1,0.7,7.2,2.2,9.4c1.5,2.1,3.7,3.2,6.5,3.2
      c2.9,0,5.1-1.1,6.7-3.2C279.2,43.6,279.9,40.5,279.9,36.4z"/>
    <path class="st1" d="M296,36.6c0-6.7,1.8-12,5.5-15.8c3.6-3.8,8.6-5.8,15-5.8c6.3,0,11.3,1.9,15,5.8c3.6,3.8,5.5,9.1,5.5,15.8
      s-1.8,12-5.5,15.8c-3.6,3.8-8.6,5.8-15,5.8s-11.4-1.9-15-5.8C297.8,48.6,296,43.3,296,36.6z M306.9,36.6c0,4,0.8,7.1,2.5,9.3
      c1.6,2.2,4,3.3,7,3.3s5.3-1.1,7-3.3c1.6-2.2,2.5-5.3,2.5-9.3s-0.8-7.1-2.4-9.2c-1.6-2.2-4-3.2-7-3.2s-5.4,1.1-7,3.2
      C307.7,29.5,306.9,32.6,306.9,36.6z"/>
    <path class="st1" d="M367.3,51.8c-1.4,2.1-3.1,3.7-5.3,4.8c-2.2,1.1-4.8,1.7-7.7,1.7c-3.9,0-6.9-1.1-9-3.3s-3.2-5.4-3.2-9.5
      c0-3.8,1.1-6.7,3.2-8.7s5.6-3.4,10.5-4.1c1.1-0.2,2.6-0.4,4.4-0.6c4.6-0.6,6.9-1.9,6.9-4c0-1.6-0.5-2.8-1.5-3.5s-2.7-1.1-5.1-1.1
      c-2.2,0-3.8,0.4-5,1.3s-1.7,2.1-1.7,3.7v0.6h-10.1v-0.7c0-4.1,1.5-7.4,4.4-9.7c2.9-2.4,7-3.5,12.1-3.5c5.6,0,10,1,13,2.9
      c3,2,4.5,4.8,4.5,8.5v22.9c0,1.7,0.2,2.9,0.5,3.8c0.3,0.8,0.9,1.5,1.7,1.9V57h-11.2c-0.4-0.7-0.7-1.5-0.9-2.3
      C367.5,53.7,367.3,52.8,367.3,51.8z M367.1,37c-1.8,0.8-3.8,1.5-6.1,2c-2.3,0.5-3.5,0.8-3.5,0.8c-1.9,0.5-3.2,1.2-4,2
      s-1.1,1.9-1.1,3.4s0.5,2.7,1.4,3.5c1,0.9,2.3,1.3,3.9,1.3c2.9,0,5.2-0.8,6.9-2.5c1.7-1.6,2.5-3.9,2.5-6.7L367.1,37L367.1,37z"/>
    <path class="st1" d="M386.9,56.8V16.5h10v6.9c1.4-2.8,3.1-4.8,4.9-6.1c1.9-1.3,4.1-1.9,6.7-1.9c0.4,0,0.7,0,1,0
      c0.2,0,0.4,0,0.6,0.1v10.9h-3.6c-2.9,0-5.2,0.8-6.6,2.3c-1.5,1.5-2.2,3.8-2.2,6.8v21.3H386.9z"/>
    <path class="st1" d="M453.2,2.2v54.7H443v-5.5c-1.6,2.4-3.3,4.1-5.3,5.2c-1.9,1.1-4.2,1.7-6.8,1.7c-5,0-9-2-12.1-5.9
      s-4.6-9.1-4.6-15.5s1.5-11.7,4.6-15.7s7.1-6,11.9-6c2.6,0,4.9,0.5,7,1.6c2,1.1,3.7,2.7,5.1,4.8V2.2H453.2z M424.9,36.4
      c0,4.1,0.8,7.2,2.3,9.3s3.7,3.2,6.6,3.2s5.1-1.1,6.6-3.2c1.5-2.1,2.3-5.2,2.3-9.4c0-3.8-0.8-6.7-2.4-8.8s-3.8-3.1-6.7-3.1
      c-2.7,0-4.8,1.1-6.4,3.2S424.9,32.7,424.9,36.4z"/>
  </g>
</g>
<g class="st0">
  <path class="st1" d="M463.2,2.1c0.8,0,1.6,0.1,2.3,0.4c0.7,0.3,1.3,0.7,1.9,1.3c0.5,0.5,0.9,1.2,1.2,1.9s0.4,1.4,0.4,2.2
    s-0.1,1.5-0.4,2.2s-0.7,1.3-1.3,1.9c-0.6,0.5-1.2,1-1.9,1.3c-0.7,0.3-1.4,0.4-2.2,0.4c-0.8,0-1.5-0.2-2.2-0.5s-1.3-0.7-1.9-1.3
    c-0.5-0.5-1-1.2-1.2-1.9c-0.3-0.7-0.4-1.4-0.4-2.2c0-0.5,0.1-1,0.2-1.6s0.4-1,0.6-1.5c0.5-0.9,1.2-1.6,2.1-2.1S462.2,2.1,463.2,2.1
    z M463.3,3.1c-0.7,0-1.3,0.1-1.8,0.3s-1.1,0.6-1.5,1c-0.5,0.5-0.8,1-1.1,1.6s-0.4,1.2-0.4,1.9c0,0.6,0.1,1.3,0.4,1.8s0.6,1.1,1,1.5
    c0.5,0.5,1,0.8,1.6,1.1s1.2,0.4,1.8,0.4c0.6,0,1.2-0.1,1.8-0.4c0.6-0.2,1.1-0.6,1.6-1.1c0.5-0.4,0.8-0.9,1.1-1.5
    c0.2-0.6,0.4-1.2,0.4-1.8c0-0.7-0.1-1.3-0.3-1.9c-0.2-0.6-0.6-1.1-1-1.6c-0.5-0.5-1-0.8-1.6-1.1C464.6,3.2,463.9,3.1,463.3,3.1z
     M460.8,4.6h2.5c0.9,0,1.6,0.2,2.1,0.5s0.7,0.8,0.7,1.4c0,0.4-0.1,0.8-0.4,1.1s-0.6,0.5-1,0.6l1.4,2.9h-1.8l-1.2-2.6h-0.8v2.6h-1.6
    L460.8,4.6L460.8,4.6z M462.4,5.6v1.9h0.8c0.5,0,0.8-0.1,1-0.2s0.3-0.4,0.3-0.7c0-0.3-0.1-0.6-0.3-0.7c-0.2-0.2-0.6-0.2-1.1-0.2
    h-0.7V5.6z"/>
</g>
</svg>
