<?xml version="1.0" encoding="utf-8"?>
<!-- Generator: Adobe Illustrator 22.1.0, SVG Export Plug-In . SVG Version: 6.00 Build 0)  -->
<svg version="1.1" id="Capa_1" xmlns="http://www.w3.org/2000/svg" xmlns:xlink="http://www.w3.org/1999/xlink" x="0px" y="0px"
   viewBox="0 0 36 36" style="enable-background:new 0 0 36 36;" xml:space="preserve">
<style type="text/css">
  .st0{fill:none;stroke:#FFFFFF;stroke-width:2;stroke-miterlimit:10;}
  .st1{fill:#FFFFFF;}
</style>
<circle class="st0" cx="18" cy="18" r="17"/>
<g>
  <path class="st1" d="M20.9,24.8l-0.2,1c-0.6,0.3-1.1,0.5-1.4,0.7c-0.4,0.2-0.8,0.2-1.2,0.2c-0.7,0-1.3-0.2-1.7-0.6
    c-0.4-0.4-0.6-1-0.6-1.6c0-0.3,0-0.5,0-0.8c0-0.3,0.1-0.6,0.1-0.9l0.7-3.2c0.1-0.3,0.1-0.6,0.2-0.9c0-0.3,0.1-0.5,0.1-0.8
    c0-0.4-0.1-0.7-0.2-0.9c-0.1-0.2-0.4-0.2-0.8-0.2c-0.2,0-0.4,0-0.6,0.1c-0.2,0.1-0.4,0.1-0.5,0.2l0.2-1c0.5-0.2,1-0.4,1.4-0.6
    c0.4-0.2,0.9-0.3,1.3-0.3c0.7,0,1.3,0.2,1.7,0.6c0.4,0.4,0.6,1,0.6,1.6c0,0.1,0,0.4,0,0.7c0,0.4-0.1,0.7-0.1,1L19,22.4
    c-0.1,0.3-0.1,0.6-0.2,0.9c0,0.3-0.1,0.6-0.1,0.7c0,0.4,0.1,0.7,0.2,0.9c0.2,0.2,0.4,0.2,0.8,0.2c0.2,0,0.4,0,0.6-0.1
    C20.6,24.9,20.8,24.8,20.9,24.8z M21.2,11.4c0,0.6-0.2,1-0.6,1.4c-0.4,0.4-0.9,0.6-1.5,0.6c-0.6,0-1.1-0.2-1.5-0.6
    c-0.4-0.4-0.6-0.9-0.6-1.4c0-0.6,0.2-1,0.6-1.4c0.4-0.4,0.9-0.6,1.5-0.6c0.6,0,1.1,0.2,1.5,0.6C21,10.3,21.2,10.8,21.2,11.4z"/>
</g>
</svg>
