<?xml version="1.0" encoding="utf-8"?>
<svg version="1.1" id="trash_icon" xmlns="http://www.w3.org/2000/svg" xmlns:xlink="http://www.w3.org/1999/xlink" x="0px" y="0px"
	 viewBox="0 0 144 144" style="enable-background:new 0 0 144 144;" xml:space="preserve">
<style type="text/css">
	.st0{fill:#ADADAD;}
	.st1{fill:#343434;}
</style>
<g>
	<path class="st0" d="M73.7,144c-39.7,0-72-32.3-72-72c0-39.7,32.3-72,72-72c39.7,0,72,32.3,72,72C145.7,111.7,113.4,144,73.7,144z
		 M73.7,3c-38,0-69,30.9-69,69c0,38,30.9,69,69,69c38,0,69-30.9,69-69C142.7,34,111.7,3,73.7,3z"/>
</g>
<g>
	<path class="st1" d="M93.2,58.4l-1.8,44c0,0.3-0.3,0.6-0.7,0.6h-33c-0.3,0-0.7-0.3-0.7-0.6l-1.8-44c-0.1-1.9-1.7-3.4-3.6-3.4
		c-1.9,0.1-3.4,1.7-3.4,3.6l1.8,44c0.2,4.1,3.6,7.3,7.7,7.3h33c4.1,0,7.5-3.3,7.7-7.3l1.8-44c0.1-1.9-1.4-3.6-3.4-3.6
		C94.9,54.9,93.3,56.4,93.2,58.4L93.2,58.4z"/>
	<path class="st1" d="M71.7,61.5v34c0,1.4,1.1,2.5,2.5,2.5s2.5-1.1,2.5-2.5v-34c0-1.4-1.1-2.5-2.5-2.5S71.7,60.1,71.7,61.5z"/>
	<path class="st1" d="M60.2,61.6l1,34c0,1.4,1.2,2.5,2.6,2.4c1.4,0,2.5-1.2,2.4-2.6l-1-34c0-1.4-1.2-2.5-2.6-2.4
		C61.2,59,60.2,60.2,60.2,61.6z"/>
	<path class="st1" d="M83.2,61.4l-1,34c0,1.4,1,2.5,2.4,2.6c1.4,0,2.5-1,2.6-2.4l1-34c0-1.4-1-2.5-2.4-2.6
		C84.4,59,83.2,60,83.2,61.4z"/>
	<path class="st1" d="M48.7,51.5h50c1.9,0,3.5-1.6,3.5-3.5c0-1.9-1.6-3.5-3.5-3.5h-50c-1.9,0-3.5,1.6-3.5,3.5
		C45.2,49.9,46.8,51.5,48.7,51.5z"/>
	<path class="st1" d="M67.1,46.3l1-4.1c0.1-0.6,1-1.2,1.6-1.2h8c0.6,0,1.4,0.6,1.6,1.2l1,4.1l6.8-1.7l-1-4.1
		c-0.9-3.7-4.5-6.5-8.4-6.5h-8c-3.8,0-7.4,2.8-8.4,6.5l-1,4.1L67.1,46.3z"/>
</g>
</svg>
